<svg xmlns="http://www.w3.org/2000/svg" xmlns:xlink="http://www.w3.org/1999/xlink" width="500" zoomAndPan="magnify" viewBox="0 0 375 374.999991" height="500" preserveAspectRatio="xMidYMid meet" version="1.0"><defs><clipPath id="3c8761cf83"><path d="M 3.621094 124.265625 L 150.621094 124.265625 L 150.621094 271.265625 L 3.621094 271.265625 Z M 3.621094 124.265625 " clip-rule="nonzero"/></clipPath><clipPath id="4b5905c13f"><path d="M 224.277344 124.265625 L 371.277344 124.265625 L 371.277344 271.265625 L 224.277344 271.265625 Z M 224.277344 124.265625 " clip-rule="nonzero"/></clipPath></defs><g clip-path="url(#3c8761cf83)"><path fill="#000000" d="M 77.121094 124.265625 C 36.511719 124.265625 3.621094 157.15625 3.621094 197.765625 C 3.621094 238.375 36.511719 271.265625 77.121094 271.265625 C 117.730469 271.265625 150.621094 238.375 150.621094 197.765625 C 150.621094 157.15625 117.730469 124.265625 77.121094 124.265625 Z M 77.121094 256.566406 C 44.632812 256.566406 18.320312 230.253906 18.320312 197.765625 C 18.320312 165.28125 44.632812 138.964844 77.121094 138.964844 C 109.609375 138.964844 135.921875 165.28125 135.921875 197.765625 C 135.921875 230.253906 109.609375 256.566406 77.121094 256.566406 Z M 77.121094 256.566406 " fill-opacity="1" fill-rule="nonzero"/></g><g clip-path="url(#4b5905c13f)"><path fill="#000000" d="M 297.777344 124.265625 C 257.167969 124.265625 224.277344 157.15625 224.277344 197.765625 C 224.277344 238.375 257.167969 271.265625 297.777344 271.265625 C 338.382812 271.265625 371.277344 238.375 371.277344 197.765625 C 371.277344 157.15625 338.382812 124.265625 297.777344 124.265625 Z M 297.777344 256.566406 C 265.289062 256.566406 238.976562 230.253906 238.976562 197.765625 C 238.976562 165.28125 265.289062 138.964844 297.777344 138.964844 C 330.261719 138.964844 356.574219 165.28125 356.574219 197.765625 C 356.574219 230.253906 330.261719 256.566406 297.777344 256.566406 Z M 297.777344 256.566406 " fill-opacity="1" fill-rule="nonzero"/></g><path stroke-linecap="butt" transform="matrix(0.75, 0, 0, 0.75, 149.2531, 190.318113)" fill="none" stroke-linejoin="miter" d="M 0.0010746 9.997725 L 101.990665 9.997725 " stroke="#000000" stroke-width="20" stroke-opacity="1" stroke-miterlimit="4"/></svg>