<svg xmlns="http://www.w3.org/2000/svg" xmlns:xlink="http://www.w3.org/1999/xlink" width="500" zoomAndPan="magnify" viewBox="0 0 375 374.999991" height="500" preserveAspectRatio="xMidYMid meet" version="1.0"><defs><g/><clipPath id="27fdd3b6b0"><path d="M 3.621094 83.597656 L 150.621094 83.597656 L 150.621094 230.597656 L 3.621094 230.597656 Z M 3.621094 83.597656 " clip-rule="nonzero"/></clipPath><clipPath id="59b5bd2fdf"><path d="M 224.277344 83.597656 L 371.277344 83.597656 L 371.277344 230.597656 L 224.277344 230.597656 Z M 224.277344 83.597656 " clip-rule="nonzero"/></clipPath></defs><g clip-path="url(#27fdd3b6b0)"><path fill="#000000" d="M 77.121094 83.597656 C 36.511719 83.597656 3.621094 116.488281 3.621094 157.097656 C 3.621094 197.707031 36.511719 230.597656 77.121094 230.597656 C 117.730469 230.597656 150.621094 197.707031 150.621094 157.097656 C 150.621094 116.488281 117.730469 83.597656 77.121094 83.597656 Z M 77.121094 215.898438 C 44.632812 215.898438 18.320312 189.582031 18.320312 157.097656 C 18.320312 124.609375 44.632812 98.296875 77.121094 98.296875 C 109.609375 98.296875 135.921875 124.609375 135.921875 157.097656 C 135.921875 189.582031 109.609375 215.898438 77.121094 215.898438 Z M 77.121094 215.898438 " fill-opacity="1" fill-rule="nonzero"/></g><g clip-path="url(#59b5bd2fdf)"><path fill="#000000" d="M 297.777344 83.597656 C 257.167969 83.597656 224.277344 116.488281 224.277344 157.097656 C 224.277344 197.707031 257.167969 230.597656 297.777344 230.597656 C 338.382812 230.597656 371.277344 197.707031 371.277344 157.097656 C 371.277344 116.488281 338.382812 83.597656 297.777344 83.597656 Z M 297.777344 215.898438 C 265.289062 215.898438 238.976562 189.582031 238.976562 157.097656 C 238.976562 124.609375 265.289062 98.296875 297.777344 98.296875 C 330.261719 98.296875 356.574219 124.609375 356.574219 157.097656 C 356.574219 189.582031 330.261719 215.898438 297.777344 215.898438 Z M 297.777344 215.898438 " fill-opacity="1" fill-rule="nonzero"/></g><path stroke-linecap="butt" transform="matrix(0.75, 0, 0, 0.75, 149.2531, 149.648265)" fill="none" stroke-linejoin="miter" d="M 0.0010746 10.00023 L 101.990665 10.00023 " stroke="#000000" stroke-width="20" stroke-opacity="1" stroke-miterlimit="4"/><g fill="#000000" fill-opacity="1"><g transform="translate(73.699442, 319.199979)"><g><path d="M 6.046875 -50.40625 L 44.0625 -50.40625 L 44.0625 -40.53125 L 17.0625 -40.53125 L 17.0625 -30.3125 L 40.828125 -30.3125 L 40.828125 -20.453125 L 17.0625 -20.453125 L 17.0625 -9.859375 L 44.421875 -9.859375 L 44.421875 0 L 6.046875 0 Z M 6.046875 -50.40625 "/></g></g></g><g fill="#000000" fill-opacity="1"><g transform="translate(120.499423, 319.199979)"><g><path d="M 6.046875 -50.40625 L 29.09375 -50.40625 C 35.46875 -50.40625 40.363281 -48.695312 43.78125 -45.28125 C 46.65625 -42.40625 48.09375 -38.566406 48.09375 -33.765625 L 48.09375 -33.625 C 48.09375 -29.539062 47.097656 -26.210938 45.109375 -23.640625 C 43.117188 -21.078125 40.515625 -19.195312 37.296875 -18 L 49.609375 0 L 36.640625 0 L 25.84375 -16.125 L 17.140625 -16.125 L 17.140625 0 L 6.046875 0 Z M 28.375 -25.921875 C 31.101562 -25.921875 33.195312 -26.566406 34.65625 -27.859375 C 36.125 -29.160156 36.859375 -30.890625 36.859375 -33.046875 L 36.859375 -33.1875 C 36.859375 -35.59375 36.085938 -37.394531 34.546875 -38.59375 C 33.015625 -39.789062 30.882812 -40.390625 28.15625 -40.390625 L 17.140625 -40.390625 L 17.140625 -25.921875 Z M 28.375 -25.921875 "/></g></g></g><g fill="#000000" fill-opacity="1"><g transform="translate(171.115401, 319.199979)"><g><path d="M 6.546875 -50.40625 L 17.640625 -50.40625 L 17.640625 0 L 6.546875 0 Z M 6.546875 -50.40625 "/></g></g></g><g fill="#000000" fill-opacity="1"><g transform="translate(193.867387, 319.199979)"><g><path d="M 29.65625 0.859375 C 25.96875 0.859375 22.535156 0.1875 19.359375 -1.15625 C 16.191406 -2.5 13.457031 -4.332031 11.15625 -6.65625 C 8.851562 -8.988281 7.050781 -11.738281 5.75 -14.90625 C 4.457031 -18.070312 3.8125 -21.457031 3.8125 -25.0625 L 3.8125 -25.203125 C 3.8125 -28.796875 4.457031 -32.164062 5.75 -35.3125 C 7.050781 -38.457031 8.851562 -41.21875 11.15625 -43.59375 C 13.457031 -45.96875 16.21875 -47.835938 19.4375 -49.203125 C 22.65625 -50.578125 26.207031 -51.265625 30.09375 -51.265625 C 32.445312 -51.265625 34.59375 -51.070312 36.53125 -50.6875 C 38.476562 -50.300781 40.242188 -49.769531 41.828125 -49.09375 C 43.410156 -48.425781 44.875 -47.613281 46.21875 -46.65625 C 47.5625 -45.695312 48.8125 -44.640625 49.96875 -43.484375 L 42.90625 -35.359375 C 40.9375 -37.128906 38.929688 -38.519531 36.890625 -39.53125 C 34.859375 -40.539062 32.570312 -41.046875 30.03125 -41.046875 C 27.914062 -41.046875 25.957031 -40.632812 24.15625 -39.8125 C 22.351562 -39 20.800781 -37.867188 19.5 -36.421875 C 18.207031 -34.984375 17.203125 -33.316406 16.484375 -31.421875 C 15.765625 -29.523438 15.40625 -27.5 15.40625 -25.34375 L 15.40625 -25.203125 C 15.40625 -23.035156 15.765625 -20.992188 16.484375 -19.078125 C 17.203125 -17.160156 18.195312 -15.476562 19.46875 -14.03125 C 20.75 -12.59375 22.285156 -11.453125 24.078125 -10.609375 C 25.878906 -9.773438 27.863281 -9.359375 30.03125 -9.359375 C 32.90625 -9.359375 35.335938 -9.882812 37.328125 -10.9375 C 39.316406 -12 41.296875 -13.441406 43.265625 -15.265625 L 50.328125 -8.140625 C 49.035156 -6.742188 47.691406 -5.492188 46.296875 -4.390625 C 44.898438 -3.285156 43.375 -2.335938 41.71875 -1.546875 C 40.0625 -0.753906 38.25 -0.15625 36.28125 0.25 C 34.320312 0.65625 32.113281 0.859375 29.65625 0.859375 Z M 29.65625 0.859375 "/></g></g></g><g fill="#000000" fill-opacity="1"><g transform="translate(245.563356, 319.199979)"><g><path d="M 23.328125 -50.765625 L 33.546875 -50.765625 L 55.15625 0 L 43.5625 0 L 38.953125 -11.296875 L 17.640625 -11.296875 L 13.03125 0 L 1.734375 0 Z M 34.984375 -21.09375 L 28.296875 -37.4375 L 21.59375 -21.09375 Z M 34.984375 -21.09375 "/></g></g></g></svg>